<svg xmlns="http://www.w3.org/2000/svg" version="1.1" xmlns:xlink="http://www.w3.org/1999/xlink" viewBox="0 0 16.295289109745802 5.655496281723052"><g transform="matrix(1,0,0,1,0.7774579437949019,1.8503106408615264)"><rect width="16.295289109745802" height="16.295289109745802" x="-0.7774579437949019" y="-7.170207054872901" fill="#dce2e3"></rect><g clip-path="url(#SvgjsClipPath1002)"><g clip-path="url(#SvgjsClipPath1000e0590f9f-3f67-4eda-81f9-c7239492759e)"><path d=" M 14.547961372892821 0.10955641878014921 C 14.538949108290332 0.09040535649985704 14.516193140169044 0.0820690117425531 14.49704207788875 0.0910812763450437 C 14.47789101560846 0.10009354094753453 14.469779977466217 0.1228495090688233 14.478566935453646 0.14200057134911592 C 14.60135904066258 0.40425747128159406 14.663543666419766 0.6854401268793024 14.663543666419766 0.977212193384938 C 14.663543666419766 1.217389045041314 14.620735409557936 1.4519332313211328 14.53669604213971 1.6747614736177154 C 14.529260923842655 1.6945884557431947 14.539174414905395 1.7166685040192964 14.559001397030874 1.7243289289314134 C 14.563507529332119 1.7261313818519115 14.568013661633366 1.7268073016970988 14.572745100549673 1.7268073016970988 C 14.588065950373908 1.7268073016970988 14.602936186968016 1.7173444238644833 14.608568852344574 1.7020235740402492 C 14.695987818988733 1.4706336803713014 14.740373222155998 1.2268519228739292 14.740373222155998 0.9774375000000006 C 14.740147915540938 0.6739494895111267 14.675484917018066 0.3821774230054915 14.547961372892821 0.10955641878014921 Z" fill="#bab9b4" transform="matrix(1,0,0,1,0,0)" fill-rule="nonzero"></path></g><g clip-path="url(#SvgjsClipPath1000e0590f9f-3f67-4eda-81f9-c7239492759e)"><path d=" M 14.271735462826484 -0.32708780121052317 C 14.258217065922748 -0.3435351841100688 14.234109258111086 -0.34578825026069127 14.217887181826603 -0.33226985335695525 C 14.20166510554212 -0.3187514564532197 14.199186732776436 -0.2946436486415569 14.212705129680172 -0.2784215723570739 C 14.264075037914367 -0.21623694659988812 14.31206534692263 -0.14999680177158192 14.355549523629648 -0.08172889740771516 C 14.362984641926703 -0.07023826003953948 14.375151199140065 -0.06415498143285836 14.387768369583553 -0.06415498143285836 C 14.394752874650482 -0.06415498143285836 14.401962686332475 -0.06618274096841859 14.40849657816928 -0.07001295342447711 C 14.426295800759199 -0.0815035907926529 14.431703159520694 -0.10516078537419082 14.420212522152518 -0.12296000796410955 C 14.375151199140065 -0.19393159170872332 14.325133130596242 -0.2624248026876528 14.271735462826484 -0.32708780121052317 Z" fill="#bab9b4" transform="matrix(1,0,0,1,0,0)" fill-rule="nonzero"></path></g><g clip-path="url(#SvgjsClipPath1000e0590f9f-3f67-4eda-81f9-c7239492759e)"><path d=" M 11.509025748932974 -0.6141284287998505 C 11.51668617384509 -0.6141284287998505 11.524797211987332 -0.6166068015655353 11.531331103824137 -0.6213382404818428 C 11.869741639647662 -0.8666971442846512 12.269886187998248 -0.9964737545605166 12.689181798629125 -0.9964737545605166 C 13.108477409260002 -0.9964737545605166 13.50884726422565 -0.8666971442846512 13.847032493434112 -0.6213382404818428 C 13.864155796178844 -0.6089463766534184 13.888038297375445 -0.6125512824944144 13.900430161203868 -0.629899891854209 C 13.912822025032295 -0.6472485012140032 13.909217119191297 -0.6709056957955413 13.891868509831504 -0.6832975596239663 C 13.540840803564492 -0.9381193412593896 13.124924792159549 -1.072852697066625 12.689407105244188 -1.072852697066625 C 12.253889418328827 -1.072852697066625 11.837973406923883 -0.9381193412593896 11.486495087426746 -0.6830722530089042 C 11.469371784682014 -0.6706803891804797 11.465541572225955 -0.6465725813688169 11.47793343605438 -0.6296745852391468 C 11.485368554351435 -0.6197610941764071 11.497084498334672 -0.6141284287998505 11.509025748932974 -0.6141284287998505 Z" fill="#bab9b4" transform="matrix(1,0,0,1,0,0)" fill-rule="nonzero"></path></g><g clip-path="url(#SvgjsClipPath1000e0590f9f-3f67-4eda-81f9-c7239492759e)"><path d=" M 11.153491910364716 -0.3816120020555914 C 11.10009424259496 -0.32122982921890364 11.049850867436074 -0.2570174439261581 11.003888317963371 -0.19100260571291372 C 10.991721760750009 -0.1736539963531195 10.996227893051254 -0.149771495156519 11.01357650241105 -0.13760493794315642 C 11.020335700862917 -0.1328734990268492 11.027996125775035 -0.13062043287622638 11.03543124407209 -0.13062043287622638 C 11.047597801285452 -0.13062043287622638 11.059539051883752 -0.13625309825278298 11.066974170180806 -0.14706781577577166 C 11.11113426673301 -0.21060428122333086 11.15980049558646 -0.27256360036545435 11.211170403820656 -0.3306927070515192 C 11.225139413954517 -0.34668947672093997 11.223562267649083 -0.3707972845326024 11.208016111209785 -0.3849916012815251 C 11.191794034925302 -0.3987353048003237 11.16768622711364 -0.39738346510995026 11.153491910364716 -0.3816120020555914 Z" fill="#bab9b4" transform="matrix(1,0,0,1,0,0)" fill-rule="nonzero"></path></g><g clip-path="url(#SvgjsClipPath1000e0590f9f-3f67-4eda-81f9-c7239492759e)"><path d=" M 10.71549585068367 0.977212193384938 C 10.71549585068367 0.7462729129461148 10.754924508319567 0.520065071423599 10.833105903746175 0.3046719474240722 C 10.840315715428167 0.28484496529859293 10.830176917750364 0.2627649170224906 10.810124629009824 0.2555551053404981 C 10.790297646884344 0.24834529365850577 10.768217598608242 0.25848409133630756 10.761007786926248 0.2785363800768492 C 10.679897405503832 0.5022658488336795 10.6388916015625 0.7372606483436239 10.6388916015625 0.9769868867698754 C 10.6388916015625 1.397409030476065 10.765288612612432 1.8013837912827082 11.004113624578434 2.1454269924827902 C 11.011548742875489 2.156016403390716 11.023489993473788 2.1618743753823355 11.035656550687152 2.1618743753823355 C 11.043091668984205 2.1618743753823355 11.050752093896323 2.1596213092317122 11.057511292348192 2.1548898703154045 C 11.074859901707987 2.1427233131020422 11.079140727394169 2.118840811905442 11.067199476795869 2.1014922025456477 C 10.837161422817294 1.7707420916342405 10.71549585068367 1.3818628740367678 10.71549585068367 0.977212193384938 Z" fill="#bab9b4" transform="matrix(1,0,0,1,0,0)" fill-rule="nonzero"></path></g><g clip-path="url(#SvgjsClipPath1000e0590f9f-3f67-4eda-81f9-c7239492759e)"><path d=" M 14.254837466696815 2.179673597972254 C 13.87767419308258 2.6699407923477456 13.307197843744921 2.951123447945455 12.689407105244188 2.951123447945455 C 12.193732552107202 2.951123447945455 11.719687434016192 2.766597330209458 11.354916024230384 2.4315663936118677 C 11.339144561176024 2.417372076862945 11.315036753364362 2.418047996708132 11.300617130000377 2.43381945976249 C 11.286197506636391 2.449590922816849 11.287549346326767 2.4736987306285116 11.302870196151 2.4881183539924967 C 11.682061229300794 2.8362170742636983 12.174356183211847 3.0277276970666245 12.689181798629125 3.0277276970666245 C 13.33085503832646 3.0277276970666245 13.923636742555283 2.7357303239459267 14.315444946148563 2.2265373739052046 C 14.328287423207115 2.209639377775535 14.325133130596242 2.1857568765789344 14.308460441081635 2.172914399520386 C 14.291787751567027 2.159846615846774 14.267679943755363 2.1627756018425837 14.254837466696815 2.179673597972254 Z" fill="#bab9b4" transform="matrix(1,0,0,1,0,0)" fill-rule="nonzero"></path></g><g clip-path="url(#SvgjsClipPath1000e0590f9f-3f67-4eda-81f9-c7239492759e)"><path d=" M 12.689407105244188 -0.6235913066324656 C 11.85059057736737 -0.6235913066324656 11.16070172204671 0.02439051828661265 11.093785657373216 0.8458584368036359 L 11.440532537954045 0.8458584368036359 C 11.506322069552226 0.21477460801422765 12.04142528032511 -0.2786468789721358 12.689407105244188 -0.2786468789721358 C 13.38154902671547 -0.2786468789721358 13.945040870986197 0.28461965868353034 13.945040870986197 0.977212193384938 C 13.945040870986197 1.6693541148562203 13.381774333330533 2.2328459591269483 12.689407105244188 2.2328459591269483 C 12.04142528032511 2.2328459591269483 11.505871456322101 1.7394244721405845 11.440532537954045 1.1083406433511769 L 11.094010963988278 1.1083406433511769 C 11.161152335276833 1.9298085618682004 11.851041190597494 2.5777903867872785 12.68963241185925 2.5777903867872785 C 13.57238372967321 2.5777903867872785 14.290435911876653 1.8595128979687727 14.290435911876653 0.9769868867698754 C 14.289985298646528 0.09446087557097749 13.57238372967321 -0.6235913066324656 12.689407105244188 -0.6235913066324656 Z" fill="#404040" transform="matrix(1,0,0,1,0,0)" fill-rule="nonzero"></path></g><g clip-path="url(#SvgjsClipPath1000e0590f9f-3f67-4eda-81f9-c7239492759e)"><path d=" M 12.689407105244188 1.554898354404589 C 12.370598244931081 1.554898354404589 12.111495637609474 1.29557044046792 12.111495637609474 0.9774375000000002 C 12.111495637609474 0.6586286396868923 12.370823551546142 0.3995260323652863 12.689407105244188 0.3995260323652863 C 12.962929335929779 0.3995260323652863 13.192516776678229 0.5903607353230256 13.251997723054666 0.8460837434186976 L 13.60302542932168 0.8460837434186976 C 13.539488963874119 0.39930072575022346 13.15398934550258 0.0545816047049561 12.689407105244188 0.0545816047049561 C 12.180439461818526 0.0545816047049561 11.766325903334081 0.46869516318940163 11.766325903334081 0.9776628066150619 C 11.766325903334081 1.486630450040722 12.180439461818526 1.900518701910105 12.689407105244188 1.900518701910105 C 13.15376403888752 1.900518701910105 13.539038350643995 1.5562501940949622 13.60302542932168 1.1090165631963633 L 13.251997723054666 1.1090165631963633 C 13.192516776678229 1.3638383448317866 12.962929335929779 1.554898354404589 12.689407105244188 1.554898354404589 Z" fill="#bab9b4" transform="matrix(1,0,0,1,0,0)" fill-rule="nonzero"></path></g><g clip-path="url(#SvgjsClipPath1000e0590f9f-3f67-4eda-81f9-c7239492759e)"><path d=" M 12.886099780193545 1.1428125554557034 C 12.86176666576682 1.1340255974682756 12.838334777800345 1.1331243710080257 12.81693064936943 1.137179890079147 C 12.790569775407144 1.1421366356105165 12.763758288214735 1.1342509040833373 12.745057839164566 1.1148745351879827 L 12.745057839164566 1.1148745351879827 C 12.724104323963775 1.0930197935269428 12.716894512281783 1.060575640957976 12.728835762880085 1.0328629273053176 C 12.739875787018136 1.0074032798032815 12.745733759009754 0.9796905661506226 12.745733759009754 0.9504007061925281 C 12.745733759009754 0.9292218843766751 12.742579466398883 0.9089442890210713 12.736721494407263 0.8895679201257165 C 12.726357390114398 0.8550960080211891 12.734017815026515 0.817469803305791 12.760603995603862 0.7929113822640041 L 12.774347699122663 0.7800689052054548 C 12.79394937463308 0.7615937627703491 12.82076086182549 0.7550598709335434 12.847572349017899 0.7568623238540415 C 12.861316052536697 0.7577635503142905 12.875960982515744 0.7561864040088551 12.891056525724917 0.7503284320172359 C 12.923951291524007 0.7381618748038736 12.949636245641106 0.7093226280759037 12.956846057323098 0.675076022586439 C 12.972166907147333 0.6004995330008285 12.90840513508471 0.5358365344779583 12.834053952114163 0.550030851226881 C 12.800257959854822 0.5565647430636866 12.771418713126852 0.5811231641054737 12.758125622838179 0.6126660902141907 C 12.75226765084656 0.627085713578176 12.749563971465813 0.6408294170969744 12.750014584695936 0.6538972007705861 C 12.750465197926061 0.6795821548876839 12.74235415978382 0.7043658825445342 12.723653710733652 0.7217144919043277 L 12.707882247679294 0.7361341152683123 C 12.681296067101947 0.7606925363101 12.643219249156424 0.7658745884565321 12.609197950282022 0.7528068047829211 C 12.572698278641933 0.7388377946490601 12.531241861470477 0.734556968962877 12.487982991378521 0.7437945401804296 C 12.408449756261541 0.760917842925162 12.344237370968795 0.8253555348329702 12.32778998806925 0.9051140765650127 C 12.299851967801528 1.041199272062622 12.403042397500046 1.1606117780456229 12.534170847466285 1.1606117780456229 C 12.55963049496832 1.1606117780456229 12.583738302779985 1.1561056457443781 12.606268964286212 1.1479946076021355 C 12.635108211014181 1.1374051966942096 12.667777670198209 1.1450656216063266 12.688731185399 1.1673709764974913 L 12.688731185399 1.1673709764974913 C 12.707206327834106 1.1865220387777833 12.714416139516098 1.2135588325852562 12.707882247679294 1.239243786702354 C 12.702474888917799 1.2615491415935183 12.702474888917799 1.2858822560202436 12.710585927060041 1.311567210137342 C 12.725681470269212 1.3591069059154806 12.767363194055731 1.3958318841706294 12.816480036139305 1.4039429223128712 C 12.908855748314835 1.4192637721371058 12.98793837020169 1.3410823767104993 12.974194666682891 1.2489319711500317 C 12.96811138807621 1.2007163555267053 12.932512942896373 1.1592599383552487 12.886099780193545 1.1428125554557034 Z" fill="#404040" transform="matrix(1,0,0,1,0,0)" fill-rule="nonzero"></path></g></g><g><path d=" M 0.528 1.0799999999999996 Q 0.387 1.0799999999999996 0.28875 1.0327499999999996 Q 0.1905 0.9854999999999997 0.1365 0.8947499999999997 Q 0.0825 0.8039999999999997 0.0765 0.6734999999999998 Q 0.075 0.6119999999999997 0.075 0.5414999999999998 Q 0.075 0.47099999999999975 0.0765 0.40649999999999975 Q 0.0825 0.27749999999999975 0.13725 0.18674999999999975 Q 0.192 0.09599999999999975 0.291 0.0479999999999996 Q 0.39 -2.220446049250313e-16 0.528 -2.220446049250313e-16 Q 0.6285000000000001 -2.220446049250313e-16 0.711 0.025499999999999634 Q 0.7935 0.05099999999999971 0.8535 0.09899999999999975 Q 0.9135 0.1469999999999997 0.9465 0.2114999999999997 Q 0.9795 0.2759999999999997 0.9825 0.3554999999999997 Q 0.9825 0.36899999999999966 0.97275 0.37799999999999967 Q 0.963 0.3869999999999997 0.9495 0.3869999999999997 L 0.7785 0.3869999999999997 Q 0.7605000000000001 0.3869999999999997 0.75 0.37799999999999967 Q 0.7395 0.36899999999999966 0.7335 0.34799999999999975 Q 0.711 0.25949999999999973 0.6585 0.2264999999999997 Q 0.606 0.19349999999999967 0.528 0.19349999999999967 Q 0.435 0.19349999999999967 0.381 0.24449999999999972 Q 0.327 0.29549999999999976 0.3225 0.4139999999999997 Q 0.318 0.5369999999999997 0.3225 0.6659999999999997 Q 0.327 0.7844999999999998 0.381 0.8354999999999997 Q 0.435 0.8864999999999997 0.528 0.8864999999999997 Q 0.606 0.8864999999999997 0.65925 0.8527499999999997 Q 0.7125 0.8189999999999997 0.7335 0.7319999999999998 Q 0.7395 0.7094999999999998 0.75 0.7012499999999997 Q 0.7605000000000001 0.6929999999999997 0.7785 0.6929999999999997 L 0.9495 0.6929999999999997 Q 0.963 0.6929999999999997 0.97275 0.7019999999999997 Q 0.9825 0.7109999999999997 0.9825 0.7244999999999997 Q 0.9795 0.8039999999999997 0.9465 0.8684999999999997 Q 0.9135 0.9329999999999997 0.8535 0.9809999999999998 Q 0.7935 1.0289999999999997 0.711 1.0544999999999998 Q 0.6285000000000001 1.0799999999999996 0.528 1.0799999999999996 M 1.56748974609375 1.0799999999999996 Q 1.43098974609375 1.0799999999999996 1.33198974609375 1.0349999999999997 Q 1.23298974609375 0.9899999999999998 1.17748974609375 0.8992499999999997 Q 1.12198974609375 0.8084999999999998 1.11748974609375 0.6704999999999997 Q 1.11598974609375 0.6059999999999997 1.11598974609375 0.5422499999999997 Q 1.11598974609375 0.4784999999999997 1.11748974609375 0.41249999999999976 Q 1.12198974609375 0.27749999999999975 1.17823974609375 0.1852499999999997 Q 1.23448974609375 0.09299999999999975 1.33423974609375 0.046499999999999764 Q 1.43398974609375 -2.220446049250313e-16 1.56748974609375 -2.220446049250313e-16 Q 1.6994897460937501 -2.220446049250313e-16 1.79923974609375 0.046499999999999764 Q 1.8989897460937502 0.09299999999999975 1.95598974609375 0.1852499999999997 Q 2.01298974609375 0.27749999999999975 2.01598974609375 0.41249999999999976 Q 2.01898974609375 0.4784999999999997 2.01898974609375 0.5422499999999997 Q 2.01898974609375 0.6059999999999997 2.01598974609375 0.6704999999999997 Q 2.01148974609375 0.8084999999999998 1.95598974609375 0.8992499999999997 Q 1.90048974609375 0.9899999999999998 1.80148974609375 1.0349999999999997 Q 1.70248974609375 1.0799999999999996 1.56748974609375 1.0799999999999996 M 1.56748974609375 0.8864999999999997 Q 1.65448974609375 0.8864999999999997 1.7107397460937501 0.8332499999999997 Q 1.76698974609375 0.7799999999999997 1.7699897460937501 0.6629999999999997 Q 1.77298974609375 0.5969999999999998 1.77298974609375 0.5392499999999997 Q 1.77298974609375 0.4814999999999997 1.7699897460937501 0.4169999999999997 Q 1.76848974609375 0.33899999999999975 1.74148974609375 0.28949999999999976 Q 1.71448974609375 0.23999999999999966 1.67023974609375 0.21674999999999967 Q 1.62598974609375 0.19349999999999967 1.56748974609375 0.19349999999999967 Q 1.50898974609375 0.19349999999999967 1.46398974609375 0.21674999999999967 Q 1.41898974609375 0.23999999999999966 1.39273974609375 0.28949999999999976 Q 1.36648974609375 0.33899999999999975 1.36348974609375 0.4169999999999997 Q 1.36198974609375 0.4814999999999997 1.36198974609375 0.5392499999999997 Q 1.36198974609375 0.5969999999999998 1.36348974609375 0.6629999999999997 Q 1.36798974609375 0.7799999999999997 1.42348974609375 0.8332499999999997 Q 1.47898974609375 0.8864999999999997 1.56748974609375 0.8864999999999997 M 2.242494140625 1.0649999999999997 Q 2.225994140625 1.0649999999999997 2.215494140625 1.0544999999999998 Q 2.204994140625 1.0439999999999998 2.204994140625 1.0274999999999996 L 2.204994140625 0.05249999999999977 Q 2.204994140625 0.03599999999999981 2.215494140625 0.025499999999999634 Q 2.225994140625 0.01499999999999968 2.242494140625 0.01499999999999968 L 2.618994140625 0.01499999999999968 Q 2.768994140625 0.01499999999999968 2.869494140625 0.062249999999999694 Q 2.969994140625 0.10949999999999971 3.023244140625 0.2002499999999997 Q 3.076494140625 0.2909999999999997 3.079494140625 0.42449999999999977 Q 3.080994140625 0.4904999999999997 3.080994140625 0.5399999999999997 Q 3.080994140625 0.5894999999999997 3.079494140625 0.6539999999999997 Q 3.074994140625 0.7934999999999997 3.023994140625 0.8849999999999998 Q 2.972994140625 0.9764999999999997 2.8739941406250002 1.0207499999999998 Q 2.774994140625 1.0649999999999997 2.6264941406249998 1.0649999999999997 L 2.242494140625 1.0649999999999997 M 2.443494140625 0.8714999999999997 L 2.618994140625 0.8714999999999997 Q 2.693994140625 0.8714999999999997 2.741994140625 0.8489999999999998 Q 2.789994140625 0.8264999999999997 2.813244140625 0.7777499999999997 Q 2.836494140625 0.7289999999999996 2.8379941406249998 0.6509999999999997 Q 2.839494140625 0.6074999999999997 2.840244140625 0.5729999999999997 Q 2.840994140625 0.5384999999999998 2.840244140625 0.5039999999999997 Q 2.839494140625 0.4694999999999997 2.8379941406249998 0.42749999999999966 Q 2.834994140625 0.3149999999999997 2.7802441406250002 0.2617499999999997 Q 2.725494140625 0.20849999999999969 2.611494140625 0.20849999999999969 L 2.443494140625 0.20849999999999969 L 2.443494140625 0.8714999999999997 M 3.305970703125 1.0649999999999997 Q 3.289470703125 1.0649999999999997 3.278970703125 1.0544999999999998 Q 3.268470703125 1.0439999999999998 3.268470703125 1.0274999999999996 L 3.268470703125 0.05249999999999977 Q 3.268470703125 0.03599999999999981 3.278970703125 0.025499999999999634 Q 3.289470703125 0.01499999999999968 3.305970703125 0.01499999999999968 L 3.9854707031250003 0.01499999999999968 Q 4.001970703125 0.01499999999999968 4.012470703125 0.025499999999999634 Q 4.022970703125 0.03599999999999981 4.022970703125 0.05249999999999977 L 4.022970703125 0.17249999999999965 Q 4.022970703125 0.18749999999999967 4.012470703125 0.19799999999999973 Q 4.001970703125 0.20849999999999969 3.9854707031250003 0.20849999999999969 L 3.499470703125 0.20849999999999969 L 3.499470703125 0.44399999999999973 L 3.952470703125 0.44399999999999973 Q 3.968970703125 0.44399999999999973 3.979470703125 0.4544999999999997 Q 3.989970703125 0.46499999999999975 3.989970703125 0.4814999999999997 L 3.989970703125 0.5924999999999997 Q 3.989970703125 0.6074999999999997 3.979470703125 0.6179999999999997 Q 3.968970703125 0.6284999999999997 3.952470703125 0.6284999999999997 L 3.499470703125 0.6284999999999997 L 3.499470703125 0.8714999999999997 L 3.997470703125 0.8714999999999997 Q 4.0139707031250005 0.8714999999999997 4.024470703125 0.8819999999999997 Q 4.034970703125 0.8924999999999997 4.034970703125 0.9089999999999997 L 4.034970703125 1.0274999999999996 Q 4.034970703125 1.0439999999999998 4.024470703125 1.0544999999999998 Q 4.0139707031250005 1.0649999999999997 3.997470703125 1.0649999999999997 L 3.305970703125 1.0649999999999997 M 4.9619904785156255 1.0799999999999996 Q 4.8209904785156255 1.0799999999999996 4.722740478515625 1.0327499999999996 Q 4.624490478515625 0.9854999999999997 4.570490478515625 0.8947499999999997 Q 4.516490478515625 0.8039999999999997 4.510490478515625 0.6734999999999998 Q 4.508990478515625 0.6119999999999997 4.508990478515625 0.5414999999999998 Q 4.508990478515625 0.47099999999999975 4.510490478515625 0.40649999999999975 Q 4.516490478515625 0.27749999999999975 4.571240478515625 0.18674999999999975 Q 4.625990478515625 0.09599999999999975 4.724990478515625 0.0479999999999996 Q 4.823990478515625 -2.220446049250313e-16 4.9619904785156255 -2.220446049250313e-16 Q 5.062490478515625 -2.220446049250313e-16 5.144990478515625 0.025499999999999634 Q 5.227490478515625 0.05099999999999971 5.287490478515625 0.09899999999999975 Q 5.347490478515625 0.1469999999999997 5.380490478515625 0.2114999999999997 Q 5.413490478515625 0.2759999999999997 5.416490478515625 0.3554999999999997 Q 5.416490478515625 0.36899999999999966 5.406740478515625 0.37799999999999967 Q 5.396990478515625 0.3869999999999997 5.3834904785156255 0.3869999999999997 L 5.212490478515625 0.3869999999999997 Q 5.194490478515625 0.3869999999999997 5.183990478515625 0.37799999999999967 Q 5.173490478515625 0.36899999999999966 5.167490478515625 0.34799999999999975 Q 5.144990478515625 0.25949999999999973 5.092490478515625 0.2264999999999997 Q 5.039990478515625 0.19349999999999967 4.9619904785156255 0.19349999999999967 Q 4.868990478515625 0.19349999999999967 4.814990478515625 0.24449999999999972 Q 4.760990478515625 0.29549999999999976 4.756490478515625 0.4139999999999997 Q 4.751990478515625 0.5369999999999997 4.756490478515625 0.6659999999999997 Q 4.760990478515625 0.7844999999999998 4.814990478515625 0.8354999999999997 Q 4.868990478515625 0.8864999999999997 4.9619904785156255 0.8864999999999997 Q 5.039990478515625 0.8864999999999997 5.093240478515625 0.8527499999999997 Q 5.146490478515625 0.8189999999999997 5.167490478515625 0.7319999999999998 Q 5.173490478515625 0.7094999999999998 5.183990478515625 0.7012499999999997 Q 5.194490478515625 0.6929999999999997 5.212490478515625 0.6929999999999997 L 5.3834904785156255 0.6929999999999997 Q 5.396990478515625 0.6929999999999997 5.406740478515625 0.7019999999999997 Q 5.416490478515625 0.7109999999999997 5.416490478515625 0.7244999999999997 Q 5.413490478515625 0.8039999999999997 5.380490478515625 0.8684999999999997 Q 5.347490478515625 0.9329999999999997 5.287490478515625 0.9809999999999998 Q 5.227490478515625 1.0289999999999997 5.144990478515625 1.0544999999999998 Q 5.062490478515625 1.0799999999999996 4.9619904785156255 1.0799999999999996 M 5.621980224609375 1.0649999999999997 Q 5.605480224609375 1.0649999999999997 5.594980224609375 1.0544999999999998 Q 5.584480224609375 1.0439999999999998 5.584480224609375 1.0274999999999996 L 5.584480224609375 0.05249999999999977 Q 5.584480224609375 0.03599999999999981 5.594980224609375 0.025499999999999634 Q 5.605480224609375 0.01499999999999968 5.621980224609375 0.01499999999999968 L 5.791480224609375 0.01499999999999968 Q 5.807980224609375 0.01499999999999968 5.818480224609375 0.025499999999999634 Q 5.828980224609375 0.03599999999999981 5.828980224609375 0.05249999999999977 L 5.828980224609375 1.0274999999999996 Q 5.828980224609375 1.0439999999999998 5.818480224609375 1.0544999999999998 Q 5.807980224609375 1.0649999999999997 5.791480224609375 1.0649999999999997 L 5.621980224609375 1.0649999999999997 M 6.08844140625 1.0649999999999997 Q 6.07194140625 1.0649999999999997 6.06144140625 1.0544999999999998 Q 6.05094140625 1.0439999999999998 6.05094140625 1.0274999999999996 L 6.05094140625 0.05249999999999977 Q 6.05094140625 0.03599999999999981 6.06144140625 0.025499999999999634 Q 6.07194140625 0.01499999999999968 6.08844140625 0.01499999999999968 L 6.22494140625 0.01499999999999968 Q 6.24744140625 0.01499999999999968 6.25794140625 0.025499999999999634 Q 6.26844140625 0.03599999999999981 6.27144140625 0.04199999999999959 L 6.67194140625 0.6674999999999998 L 6.67194140625 0.05249999999999977 Q 6.67194140625 0.03599999999999981 6.68244140625 0.025499999999999634 Q 6.69294140625 0.01499999999999968 6.70794140625 0.01499999999999968 L 6.86094140625 0.01499999999999968 Q 6.87744140625 0.01499999999999968 6.88794140625 0.025499999999999634 Q 6.89844140625 0.03599999999999981 6.89844140625 0.05249999999999977 L 6.89844140625 1.0274999999999996 Q 6.89844140625 1.0424999999999998 6.88794140625 1.0537499999999997 Q 6.87744140625 1.0649999999999997 6.86094140625 1.0649999999999997 L 6.72294140625 1.0649999999999997 Q 6.70044140625 1.0649999999999997 6.69069140625 1.0537499999999997 Q 6.68094140625 1.0424999999999998 6.67644140625 1.0379999999999998 L 6.27744140625 0.4319999999999997 L 6.27744140625 1.0274999999999996 Q 6.27744140625 1.0439999999999998 6.26694140625 1.0544999999999998 Q 6.25644140625 1.0649999999999997 6.23994140625 1.0649999999999997 L 6.08844140625 1.0649999999999997 M 7.15796044921875 1.0649999999999997 Q 7.14146044921875 1.0649999999999997 7.13096044921875 1.0544999999999998 Q 7.12046044921875 1.0439999999999998 7.12046044921875 1.0274999999999996 L 7.12046044921875 0.05249999999999977 Q 7.12046044921875 0.03599999999999981 7.13096044921875 0.025499999999999634 Q 7.14146044921875 0.01499999999999968 7.15796044921875 0.01499999999999968 L 7.83746044921875 0.01499999999999968 Q 7.85396044921875 0.01499999999999968 7.86446044921875 0.025499999999999634 Q 7.87496044921875 0.03599999999999981 7.87496044921875 0.05249999999999977 L 7.87496044921875 0.17249999999999965 Q 7.87496044921875 0.18749999999999967 7.86446044921875 0.19799999999999973 Q 7.85396044921875 0.20849999999999969 7.83746044921875 0.20849999999999969 L 7.35146044921875 0.20849999999999969 L 7.35146044921875 0.44399999999999973 L 7.80446044921875 0.44399999999999973 Q 7.82096044921875 0.44399999999999973 7.83146044921875 0.4544999999999997 Q 7.84196044921875 0.46499999999999975 7.84196044921875 0.4814999999999997 L 7.84196044921875 0.5924999999999997 Q 7.84196044921875 0.6074999999999997 7.83146044921875 0.6179999999999997 Q 7.82096044921875 0.6284999999999997 7.80446044921875 0.6284999999999997 L 7.35146044921875 0.6284999999999997 L 7.35146044921875 0.8714999999999997 L 7.84946044921875 0.8714999999999997 Q 7.8659604492187505 0.8714999999999997 7.87646044921875 0.8819999999999997 Q 7.88696044921875 0.8924999999999997 7.88696044921875 0.9089999999999997 L 7.88696044921875 1.0274999999999996 Q 7.88696044921875 1.0439999999999998 7.87646044921875 1.0544999999999998 Q 7.8659604492187505 1.0649999999999997 7.84946044921875 1.0649999999999997 L 7.15796044921875 1.0649999999999997 M 8.1029677734375 1.0649999999999997 Q 8.0879677734375 1.0649999999999997 8.0767177734375 1.0544999999999998 Q 8.0654677734375 1.0439999999999998 8.0654677734375 1.0274999999999996 L 8.0654677734375 0.05249999999999977 Q 8.0654677734375 0.03599999999999981 8.0767177734375 0.025499999999999634 Q 8.0879677734375 0.01499999999999968 8.1029677734375 0.01499999999999968 L 8.2424677734375 0.01499999999999968 Q 8.2649677734375 0.01499999999999968 8.2762177734375 0.02699999999999969 Q 8.2874677734375 0.0389999999999997 8.2919677734375 0.04499999999999971 L 8.5679677734375 0.5534999999999997 L 8.8469677734375 0.04499999999999971 Q 8.8499677734375 0.0389999999999997 8.8612177734375 0.02699999999999969 Q 8.8724677734375 0.01499999999999968 8.8949677734375 0.01499999999999968 L 9.0344677734375 0.01499999999999968 Q 9.0509677734375 0.01499999999999968 9.0614677734375 0.025499999999999634 Q 9.0719677734375 0.03599999999999981 9.0719677734375 0.05249999999999977 L 9.0719677734375 1.0274999999999996 Q 9.0719677734375 1.0439999999999998 9.0614677734375 1.0544999999999998 Q 9.0509677734375 1.0649999999999997 9.0344677734375 1.0649999999999997 L 8.8814677734375 1.0649999999999997 Q 8.8664677734375 1.0649999999999997 8.8559677734375 1.0544999999999998 Q 8.8454677734375 1.0439999999999998 8.8454677734375 1.0274999999999996 L 8.8454677734375 0.42149999999999976 L 8.6549677734375 0.7784999999999997 Q 8.6474677734375 0.7919999999999997 8.635467773437501 0.8024999999999998 Q 8.6234677734375 0.8129999999999997 8.6039677734375 0.8129999999999997 L 8.5334677734375 0.8129999999999997 Q 8.5139677734375 0.8129999999999997 8.5019677734375 0.8024999999999998 Q 8.4899677734375 0.7919999999999997 8.4824677734375 0.7784999999999997 L 8.2919677734375 0.42149999999999976 L 8.2919677734375 1.0274999999999996 Q 8.2919677734375 1.0439999999999998 8.2814677734375 1.0544999999999998 Q 8.2709677734375 1.0649999999999997 8.2559677734375 1.0649999999999997 L 8.1029677734375 1.0649999999999997 M 9.23242236328125 1.0649999999999997 Q 9.21892236328125 1.0649999999999997 9.20992236328125 1.0552499999999998 Q 9.20092236328125 1.0454999999999997 9.20092236328125 1.0334999999999996 Q 9.20092236328125 1.0259999999999998 9.20242236328125 1.0199999999999998 L 9.55942236328125 0.05549999999999966 Q 9.56392236328125 0.0389999999999997 9.57742236328125 0.02699999999999969 Q 9.59092236328125 0.01499999999999968 9.61492236328125 0.01499999999999968 L 9.80692236328125 0.01499999999999968 Q 9.83092236328125 0.01499999999999968 9.84442236328125 0.02699999999999969 Q 9.85792236328125 0.0389999999999997 9.86242236328125 0.05549999999999966 L 10.21942236328125 1.0199999999999998 Q 10.22092236328125 1.0259999999999998 10.22092236328125 1.0334999999999996 Q 10.22092236328125 1.0454999999999997 10.21192236328125 1.0552499999999998 Q 10.20292236328125 1.0649999999999997 10.189422363281249 1.0649999999999997 L 10.03342236328125 1.0649999999999997 Q 10.01092236328125 1.0649999999999997 10.00042236328125 1.0544999999999998 Q 9.98992236328125 1.0439999999999998 9.98692236328125 1.0349999999999997 L 9.92242236328125 0.8669999999999998 L 9.49942236328125 0.8669999999999998 L 9.43492236328125 1.0349999999999997 Q 9.43192236328125 1.0439999999999998 9.42142236328125 1.0544999999999998 Q 9.41092236328125 1.0649999999999997 9.38842236328125 1.0649999999999997 L 9.23242236328125 1.0649999999999997 M 9.55492236328125 0.6734999999999998 L 9.86542236328125 0.6734999999999998 L 9.71092236328125 0.24149999999999971 L 9.55492236328125 0.6734999999999998" fill="#404040" fill-rule="nonzero"></path></g><g><path d=" M 2.5701082763671885 1.9548749999999997 Q 2.5618582763671887 1.9548749999999997 2.5573582763671885 1.9499999999999997 Q 2.5528582763671883 1.9451249999999998 2.5528582763671883 1.9376249999999997 L 2.5528582763671883 1.4478749999999998 Q 2.5528582763671883 1.4396249999999997 2.5573582763671885 1.4347499999999997 Q 2.5618582763671887 1.4298749999999996 2.5701082763671885 1.4298749999999996 L 2.7756082763671888 1.4298749999999996 Q 2.8318582763671887 1.4298749999999996 2.8674832763671887 1.4482499999999998 Q 2.9031082763671887 1.4666249999999996 2.9199832763671885 1.4981249999999997 Q 2.9368582763671887 1.5296249999999998 2.9368582763671887 1.5686249999999997 Q 2.9368582763671887 1.5993749999999998 2.9267332763671883 1.6214999999999997 Q 2.9166082763671883 1.6436249999999997 2.9016082763671887 1.6574999999999998 Q 2.8866082763671885 1.6713749999999996 2.8723582763671884 1.6788749999999997 Q 2.9016082763671887 1.6931249999999998 2.9244832763671886 1.7253749999999997 Q 2.9473582763671886 1.7576249999999998 2.9473582763671886 1.8033749999999997 Q 2.9473582763671886 1.8446249999999997 2.9286082763671883 1.8791249999999997 Q 2.9098582763671885 1.9136249999999997 2.8727332763671884 1.9342499999999998 Q 2.8356082763671884 1.9548749999999997 2.7816082763671885 1.9548749999999997 L 2.5701082763671885 1.9548749999999997 M 2.6263582763671884 1.8941249999999996 L 2.7718582763671886 1.8941249999999996 Q 2.8198582763671887 1.8941249999999996 2.8461082763671883 1.8678749999999997 Q 2.8723582763671884 1.8416249999999996 2.8723582763671884 1.8033749999999997 Q 2.8723582763671884 1.7636249999999998 2.8461082763671883 1.7377499999999997 Q 2.8198582763671887 1.7118749999999996 2.7718582763671886 1.7118749999999996 L 2.6263582763671884 1.7118749999999996 L 2.6263582763671884 1.8941249999999996 M 2.6263582763671884 1.6518749999999998 L 2.7643582763671883 1.6518749999999998 Q 2.8123582763671884 1.6518749999999998 2.8371082763671884 1.6297499999999996 Q 2.8618582763671885 1.6076249999999996 2.8618582763671885 1.5693749999999997 Q 2.8618582763671885 1.5311249999999996 2.8371082763671884 1.5108749999999997 Q 2.8123582763671884 1.4906249999999996 2.7643582763671883 1.4906249999999996 L 2.6263582763671884 1.4906249999999996 L 2.6263582763671884 1.6518749999999998 M 3.244005615234376 1.9623749999999998 Q 3.179505615234376 1.9623749999999998 3.133755615234376 1.9402499999999996 Q 3.0880056152343762 1.9181249999999996 3.063255615234376 1.8719999999999997 Q 3.038505615234376 1.8258749999999997 3.035505615234376 1.7561249999999997 Q 3.034755615234376 1.7231249999999996 3.034755615234376 1.6927499999999998 Q 3.034755615234376 1.6623749999999997 3.035505615234376 1.6293749999999996 Q 3.038505615234376 1.5603749999999996 3.064380615234376 1.5142499999999997 Q 3.090255615234376 1.4681249999999997 3.1363806152343763 1.4452499999999997 Q 3.1825056152343763 1.4223749999999997 3.244005615234376 1.4223749999999997 Q 3.304755615234376 1.4223749999999997 3.350880615234376 1.4452499999999997 Q 3.397005615234376 1.4681249999999997 3.423255615234376 1.5142499999999997 Q 3.449505615234376 1.5603749999999996 3.4517556152343762 1.6293749999999996 Q 3.453255615234376 1.6623749999999997 3.453255615234376 1.6927499999999998 Q 3.453255615234376 1.7231249999999996 3.4517556152343762 1.7561249999999997 Q 3.449505615234376 1.8258749999999997 3.424380615234376 1.8719999999999997 Q 3.399255615234376 1.9181249999999996 3.353505615234376 1.9402499999999996 Q 3.307755615234376 1.9623749999999998 3.244005615234376 1.9623749999999998 M 3.244005615234376 1.8986249999999998 Q 3.3010056152343763 1.8986249999999998 3.337380615234376 1.8641249999999996 Q 3.373755615234376 1.8296249999999996 3.376755615234376 1.7523749999999998 Q 3.378255615234376 1.7186249999999996 3.378255615234376 1.6919999999999997 Q 3.378255615234376 1.6653749999999996 3.376755615234376 1.6323749999999997 Q 3.375255615234376 1.5806249999999997 3.3576306152343762 1.5483749999999996 Q 3.340005615234376 1.5161249999999997 3.3107556152343762 1.5011249999999996 Q 3.281505615234376 1.4861249999999997 3.244005615234376 1.4861249999999997 Q 3.2065056152343763 1.4861249999999997 3.177255615234376 1.5011249999999996 Q 3.148005615234376 1.5161249999999997 3.130380615234376 1.5483749999999996 Q 3.1127556152343763 1.5806249999999997 3.110505615234376 1.6323749999999997 Q 3.109755615234376 1.6653749999999996 3.109755615234376 1.6919999999999997 Q 3.109755615234376 1.7186249999999996 3.110505615234376 1.7523749999999998 Q 3.113505615234376 1.8296249999999996 3.150255615234376 1.8641249999999996 Q 3.187005615234376 1.8986249999999998 3.244005615234376 1.8986249999999998 M 3.752882080078126 1.9623749999999998 Q 3.688382080078126 1.9623749999999998 3.6426320800781262 1.9402499999999996 Q 3.5968820800781263 1.9181249999999996 3.572132080078126 1.8719999999999997 Q 3.547382080078126 1.8258749999999997 3.544382080078126 1.7561249999999997 Q 3.543632080078126 1.7231249999999996 3.543632080078126 1.6927499999999998 Q 3.543632080078126 1.6623749999999997 3.544382080078126 1.6293749999999996 Q 3.547382080078126 1.5603749999999996 3.5732570800781263 1.5142499999999997 Q 3.599132080078126 1.4681249999999997 3.6452570800781263 1.4452499999999997 Q 3.6913820800781263 1.4223749999999997 3.752882080078126 1.4223749999999997 Q 3.813632080078126 1.4223749999999997 3.859757080078126 1.4452499999999997 Q 3.905882080078126 1.4681249999999997 3.932132080078126 1.5142499999999997 Q 3.958382080078126 1.5603749999999996 3.9606320800781263 1.6293749999999996 Q 3.962132080078126 1.6623749999999997 3.962132080078126 1.6927499999999998 Q 3.962132080078126 1.7231249999999996 3.9606320800781263 1.7561249999999997 Q 3.958382080078126 1.8258749999999997 3.933257080078126 1.8719999999999997 Q 3.908132080078126 1.9181249999999996 3.862382080078126 1.9402499999999996 Q 3.816632080078126 1.9623749999999998 3.752882080078126 1.9623749999999998 M 3.752882080078126 1.8986249999999998 Q 3.8098820800781263 1.8986249999999998 3.846257080078126 1.8641249999999996 Q 3.882632080078126 1.8296249999999996 3.885632080078126 1.7523749999999998 Q 3.887132080078126 1.7186249999999996 3.887132080078126 1.6919999999999997 Q 3.887132080078126 1.6653749999999996 3.885632080078126 1.6323749999999997 Q 3.884132080078126 1.5806249999999997 3.8665070800781263 1.5483749999999996 Q 3.848882080078126 1.5161249999999997 3.8196320800781263 1.5011249999999996 Q 3.790382080078126 1.4861249999999997 3.752882080078126 1.4861249999999997 Q 3.7153820800781263 1.4861249999999997 3.686132080078126 1.5011249999999996 Q 3.656882080078126 1.5161249999999997 3.639257080078126 1.5483749999999996 Q 3.6216320800781263 1.5806249999999997 3.6193820800781262 1.6323749999999997 Q 3.618632080078126 1.6653749999999996 3.618632080078126 1.6919999999999997 Q 3.618632080078126 1.7186249999999996 3.6193820800781262 1.7523749999999998 Q 3.622382080078126 1.8296249999999996 3.659132080078126 1.8641249999999996 Q 3.695882080078126 1.8986249999999998 3.752882080078126 1.8986249999999998 M 4.090008544921876 1.9548749999999997 Q 4.081758544921876 1.9548749999999997 4.077258544921876 1.9499999999999997 Q 4.072758544921876 1.9451249999999998 4.072758544921876 1.9376249999999997 L 4.072758544921876 1.4478749999999998 Q 4.072758544921876 1.4396249999999997 4.077258544921876 1.4347499999999997 Q 4.081758544921876 1.4298749999999996 4.090008544921876 1.4298749999999996 L 4.127508544921876 1.4298749999999996 Q 4.135758544921877 1.4298749999999996 4.140633544921876 1.4347499999999997 Q 4.145508544921876 1.4396249999999997 4.145508544921876 1.4478749999999998 L 4.145508544921876 1.6338749999999997 L 4.3457585449218765 1.4418749999999996 Q 4.348758544921876 1.4388749999999997 4.355883544921876 1.4343749999999997 Q 4.363008544921876 1.4298749999999996 4.375008544921876 1.4298749999999996 L 4.4155085449218765 1.4298749999999996 Q 4.421508544921876 1.4298749999999996 4.426008544921876 1.4343749999999997 Q 4.430508544921876 1.4388749999999997 4.430508544921876 1.4448749999999997 Q 4.430508544921876 1.4508749999999997 4.427508544921876 1.4546249999999996 L 4.195758544921876 1.6811249999999998 L 4.442508544921876 1.9293749999999996 Q 4.446258544921876 1.9338749999999998 4.446258544921876 1.9398749999999998 Q 4.446258544921876 1.9458749999999998 4.441758544921877 1.9503749999999997 Q 4.437258544921876 1.9548749999999997 4.431258544921876 1.9548749999999997 L 4.389258544921876 1.9548749999999997 Q 4.376508544921876 1.9548749999999997 4.3697585449218765 1.9499999999999997 Q 4.363008544921876 1.9451249999999998 4.360008544921876 1.9421249999999997 L 4.145508544921876 1.7313749999999997 L 4.145508544921876 1.9376249999999997 Q 4.145508544921876 1.9451249999999998 4.140633544921876 1.9499999999999997 Q 4.135758544921877 1.9548749999999997 4.127508544921876 1.9548749999999997 L 4.090008544921876 1.9548749999999997 M 4.526893432617189 1.9548749999999997 Q 4.519393432617188 1.9548749999999997 4.514518432617189 1.9499999999999997 Q 4.509643432617189 1.9451249999999998 4.509643432617189 1.9376249999999997 L 4.509643432617189 1.8836249999999997 Q 4.509643432617189 1.8761249999999996 4.514518432617189 1.8712499999999996 Q 4.519393432617188 1.8663749999999997 4.526893432617189 1.8663749999999997 L 4.580893432617189 1.8663749999999997 Q 4.588393432617188 1.8663749999999997 4.593643432617188 1.8712499999999996 Q 4.598893432617189 1.8761249999999996 4.598893432617189 1.8836249999999997 L 4.598893432617189 1.9376249999999997 Q 4.598893432617189 1.9451249999999998 4.593643432617188 1.9499999999999997 Q 4.588393432617188 1.9548749999999997 4.580893432617189 1.9548749999999997 L 4.526893432617189 1.9548749999999997 M 4.976156982421876 1.9548749999999997 Q 4.966406982421876 1.9548749999999997 4.960781982421876 1.9496249999999997 Q 4.955156982421876 1.9443749999999997 4.952906982421876 1.9346249999999996 L 4.856156982421877 1.4531249999999996 Q 4.855406982421877 1.4501249999999997 4.855406982421877 1.4478749999999998 Q 4.855406982421877 1.4456249999999997 4.855406982421877 1.4448749999999997 Q 4.855406982421877 1.4388749999999997 4.859906982421876 1.4343749999999997 Q 4.864406982421876 1.4298749999999996 4.870406982421876 1.4298749999999996 L 4.909406982421876 1.4298749999999996 Q 4.925156982421877 1.4298749999999996 4.927406982421877 1.4426249999999996 L 5.003906982421876 1.8296249999999996 L 5.084906982421876 1.5641249999999998 Q 5.0871569824218765 1.5573749999999997 5.092781982421876 1.5517499999999997 Q 5.098406982421876 1.5461249999999997 5.1089069824218765 1.5461249999999997 L 5.136656982421877 1.5461249999999997 Q 5.147906982421876 1.5461249999999997 5.153156982421876 1.5517499999999997 Q 5.158406982421877 1.5573749999999997 5.159906982421877 1.5641249999999998 L 5.241656982421876 1.8296249999999996 L 5.317406982421876 1.4426249999999996 Q 5.3196569824218765 1.4298749999999996 5.336156982421876 1.4298749999999996 L 5.375156982421876 1.4298749999999996 Q 5.381156982421876 1.4298749999999996 5.385656982421876 1.4343749999999997 Q 5.3901569824218765 1.4388749999999997 5.3901569824218765 1.4448749999999997 Q 5.3901569824218765 1.4456249999999997 5.3897819824218764 1.4478749999999998 Q 5.389406982421876 1.4501249999999997 5.389406982421876 1.4531249999999996 L 5.292656982421876 1.9346249999999996 Q 5.290406982421876 1.9443749999999997 5.284781982421876 1.9496249999999997 Q 5.279156982421876 1.9548749999999997 5.269406982421876 1.9548749999999997 L 5.240156982421876 1.9548749999999997 Q 5.229656982421877 1.9548749999999997 5.223656982421876 1.9496249999999997 Q 5.217656982421876 1.9443749999999997 5.215406982421876 1.9361249999999997 L 5.122406982421876 1.6503749999999997 L 5.030156982421876 1.9361249999999997 Q 5.027156982421876 1.9443749999999997 5.021531982421877 1.9496249999999997 Q 5.0159069824218765 1.9548749999999997 5.005406982421876 1.9548749999999997 L 4.976156982421876 1.9548749999999997 M 5.434067871093752 1.9548749999999997 Q 5.428067871093751 1.9548749999999997 5.423567871093751 1.9503749999999997 Q 5.419067871093751 1.9458749999999998 5.419067871093751 1.9398749999999998 Q 5.419067871093751 1.9361249999999997 5.419817871093751 1.9316249999999997 L 5.605817871093751 1.4463749999999997 Q 5.608817871093751 1.4388749999999997 5.614067871093751 1.4343749999999997 Q 5.6193178710937515 1.4298749999999996 5.629817871093751 1.4298749999999996 L 5.680817871093751 1.4298749999999996 Q 5.6913178710937515 1.4298749999999996 5.696567871093752 1.4343749999999997 Q 5.701817871093751 1.4388749999999997 5.704817871093751 1.4463749999999997 L 5.890067871093751 1.9316249999999997 Q 5.891567871093751 1.9361249999999997 5.891567871093751 1.9398749999999998 Q 5.891567871093751 1.9458749999999998 5.887067871093751 1.9503749999999997 Q 5.882567871093752 1.9548749999999997 5.8765678710937514 1.9548749999999997 L 5.838317871093752 1.9548749999999997 Q 5.829317871093751 1.9548749999999997 5.825192871093751 1.9503749999999997 Q 5.821067871093751 1.9458749999999998 5.819567871093751 1.9421249999999997 L 5.778317871093751 1.8356249999999996 L 5.532317871093752 1.8356249999999996 L 5.491067871093751 1.9421249999999997 Q 5.490317871093751 1.9458749999999998 5.485817871093752 1.9503749999999997 Q 5.481317871093752 1.9548749999999997 5.472317871093751 1.9548749999999997 L 5.434067871093752 1.9548749999999997 M 5.554067871093752 1.7711249999999996 L 5.756567871093751 1.7711249999999996 L 5.655317871093751 1.5048749999999997 L 5.554067871093752 1.7711249999999996 M 6.049449096679689 1.9548749999999997 Q 6.041949096679689 1.9548749999999997 6.037074096679689 1.9499999999999997 Q 6.032199096679689 1.9451249999999998 6.032199096679689 1.9376249999999997 L 6.032199096679689 1.4966249999999997 L 5.888199096679688 1.4966249999999997 Q 5.880699096679689 1.4966249999999997 5.875824096679689 1.4917499999999997 Q 5.870949096679689 1.4868749999999997 5.870949096679689 1.4793749999999997 L 5.870949096679689 1.4478749999999998 Q 5.870949096679689 1.4396249999999997 5.875824096679689 1.4347499999999997 Q 5.880699096679689 1.4298749999999996 5.888199096679688 1.4298749999999996 L 6.249699096679689 1.4298749999999996 Q 6.257949096679689 1.4298749999999996 6.262824096679688 1.4347499999999997 Q 6.267699096679689 1.4396249999999997 6.267699096679689 1.4478749999999998 L 6.267699096679689 1.4793749999999997 Q 6.267699096679689 1.4868749999999997 6.262824096679688 1.4917499999999997 Q 6.257949096679689 1.4966249999999997 6.249699096679689 1.4966249999999997 L 6.106449096679689 1.4966249999999997 L 6.106449096679689 1.9376249999999997 Q 6.106449096679689 1.9451249999999998 6.1015740966796885 1.9499999999999997 Q 6.096699096679689 1.9548749999999997 6.088449096679689 1.9548749999999997 L 6.049449096679689 1.9548749999999997 M 6.530547729492189 1.9623749999999998 Q 6.461547729492189 1.9623749999999998 6.416172729492189 1.9368749999999997 Q 6.370797729492189 1.9113749999999996 6.347547729492189 1.8656249999999996 Q 6.324297729492189 1.8198749999999997 6.322047729492189 1.7591249999999996 Q 6.321297729492189 1.7283749999999998 6.321297729492189 1.6931249999999998 Q 6.321297729492189 1.6578749999999998 6.322047729492189 1.6256249999999997 Q 6.324297729492189 1.5648749999999998 6.347547729492189 1.5191249999999996 Q 6.370797729492189 1.4733749999999997 6.416172729492189 1.4478749999999998 Q 6.461547729492189 1.4223749999999997 6.530547729492189 1.4223749999999997 Q 6.582297729492189 1.4223749999999997 6.621297729492189 1.4366249999999998 Q 6.660297729492189 1.4508749999999997 6.686172729492188 1.4748749999999997 Q 6.7120477294921885 1.4988749999999997 6.725547729492189 1.5284999999999997 Q 6.739047729492189 1.5581249999999998 6.740547729492189 1.5896249999999996 Q 6.741297729492189 1.5963749999999997 6.736422729492189 1.6008749999999998 Q 6.731547729492189 1.6053749999999996 6.724797729492189 1.6053749999999996 L 6.683547729492189 1.6053749999999996 Q 6.676797729492189 1.6053749999999996 6.671922729492189 1.6016249999999996 Q 6.667047729492189 1.5978749999999997 6.6647977294921885 1.5881249999999998 Q 6.652047729492189 1.5296249999999998 6.6171727294921885 1.5078749999999996 Q 6.582297729492189 1.4861249999999997 6.530547729492189 1.4861249999999997 Q 6.469797729492189 1.4861249999999997 6.434547729492189 1.5202499999999997 Q 6.399297729492189 1.5543749999999996 6.397047729492189 1.6293749999999996 Q 6.394797729492189 1.6908749999999997 6.397047729492189 1.7553749999999997 Q 6.399297729492189 1.8303749999999996 6.434547729492189 1.8644999999999996 Q 6.469797729492189 1.8986249999999998 6.530547729492189 1.8986249999999998 Q 6.582297729492189 1.8986249999999998 6.6171727294921885 1.8768749999999996 Q 6.652047729492189 1.8551249999999997 6.6647977294921885 1.7966249999999997 Q 6.667047729492189 1.7868749999999998 6.671922729492189 1.7831249999999996 Q 6.676797729492189 1.7793749999999997 6.683547729492189 1.7793749999999997 L 6.724797729492189 1.7793749999999997 Q 6.731547729492189 1.7793749999999997 6.736422729492189 1.7834999999999996 Q 6.741297729492189 1.7876249999999998 6.740547729492189 1.7943749999999996 Q 6.739047729492189 1.8258749999999997 6.725547729492189 1.8558749999999997 Q 6.7120477294921885 1.8858749999999997 6.686172729492188 1.9098749999999998 Q 6.660297729492189 1.9338749999999998 6.621297729492189 1.9481249999999997 Q 6.582297729492189 1.9623749999999998 6.530547729492189 1.9623749999999998 M 6.8594344482421885 1.9548749999999997 Q 6.851184448242189 1.9548749999999997 6.846684448242189 1.9499999999999997 Q 6.842184448242189 1.9451249999999998 6.842184448242189 1.9376249999999997 L 6.842184448242189 1.4478749999999998 Q 6.842184448242189 1.4396249999999997 6.846684448242189 1.4347499999999997 Q 6.851184448242189 1.4298749999999996 6.8594344482421885 1.4298749999999996 L 6.897684448242189 1.4298749999999996 Q 6.9059344482421885 1.4298749999999996 6.910809448242189 1.4347499999999997 Q 6.915684448242189 1.4396249999999997 6.915684448242189 1.4478749999999998 L 6.915684448242189 1.6548749999999997 L 7.173684448242189 1.6548749999999997 L 7.173684448242189 1.4478749999999998 Q 7.173684448242189 1.4396249999999997 7.178559448242189 1.4347499999999997 Q 7.183434448242189 1.4298749999999996 7.190934448242189 1.4298749999999996 L 7.229184448242189 1.4298749999999996 Q 7.237434448242189 1.4298749999999996 7.242309448242189 1.4347499999999997 Q 7.247184448242189 1.4396249999999997 7.247184448242189 1.4478749999999998 L 7.247184448242189 1.9376249999999997 Q 7.247184448242189 1.9451249999999998 7.242309448242189 1.9499999999999997 Q 7.237434448242189 1.9548749999999997 7.229184448242189 1.9548749999999997 L 7.190934448242189 1.9548749999999997 Q 7.183434448242189 1.9548749999999997 7.178559448242189 1.9499999999999997 Q 7.173684448242189 1.9451249999999998 7.173684448242189 1.9376249999999997 L 7.173684448242189 1.7223749999999998 L 6.915684448242189 1.7223749999999998 L 6.915684448242189 1.9376249999999997 Q 6.915684448242189 1.9451249999999998 6.910809448242189 1.9499999999999997 Q 6.9059344482421885 1.9548749999999997 6.897684448242189 1.9548749999999997 L 6.8594344482421885 1.9548749999999997 M 7.375787109375001 1.9548749999999997 Q 7.368287109375001 1.9548749999999997 7.363412109375002 1.9499999999999997 Q 7.358537109375002 1.9451249999999998 7.358537109375002 1.9376249999999997 L 7.358537109375002 1.8836249999999997 Q 7.358537109375002 1.8761249999999996 7.363412109375002 1.8712499999999996 Q 7.368287109375001 1.8663749999999997 7.375787109375001 1.8663749999999997 L 7.429787109375002 1.8663749999999997 Q 7.437287109375001 1.8663749999999997 7.442537109375001 1.8712499999999996 Q 7.447787109375001 1.8761249999999996 7.447787109375001 1.8836249999999997 L 7.447787109375001 1.9376249999999997 Q 7.447787109375001 1.9451249999999998 7.442537109375001 1.9499999999999997 Q 7.437287109375001 1.9548749999999997 7.429787109375002 1.9548749999999997 L 7.375787109375001 1.9548749999999997 M 7.765794067382814 1.9548749999999997 Q 7.757544067382814 1.9548749999999997 7.753044067382814 1.9499999999999997 Q 7.748544067382814 1.9451249999999998 7.748544067382814 1.9376249999999997 L 7.748544067382814 1.4478749999999998 Q 7.748544067382814 1.4396249999999997 7.753044067382814 1.4347499999999997 Q 7.757544067382814 1.4298749999999996 7.765794067382814 1.4298749999999996 L 8.075544067382815 1.4298749999999996 Q 8.083794067382813 1.4298749999999996 8.088294067382813 1.4347499999999997 Q 8.092794067382814 1.4396249999999997 8.092794067382814 1.4478749999999998 L 8.092794067382814 1.4763749999999995 Q 8.092794067382814 1.4846249999999996 8.088294067382813 1.4891249999999996 Q 8.083794067382813 1.4936249999999998 8.075544067382815 1.4936249999999998 L 7.820544067382814 1.4936249999999998 L 7.820544067382814 1.6578749999999998 L 8.059044067382814 1.6578749999999998 Q 8.067294067382814 1.6578749999999998 8.071794067382815 1.6627499999999997 Q 8.076294067382815 1.6676249999999997 8.076294067382815 1.6758749999999996 L 8.076294067382815 1.7036249999999997 Q 8.076294067382815 1.7111249999999998 8.071794067382815 1.7159999999999997 Q 8.067294067382814 1.7208749999999997 8.059044067382814 1.7208749999999997 L 7.820544067382814 1.7208749999999997 L 7.820544067382814 1.8911249999999997 L 8.081544067382815 1.8911249999999997 Q 8.089794067382813 1.8911249999999997 8.094294067382814 1.8956249999999997 Q 8.098794067382814 1.9001249999999996 8.098794067382814 1.9083749999999997 L 8.098794067382814 1.9376249999999997 Q 8.098794067382814 1.9451249999999998 8.094294067382814 1.9499999999999997 Q 8.089794067382813 1.9548749999999997 8.081544067382815 1.9548749999999997 L 7.765794067382814 1.9548749999999997 M 8.221432617187501 1.9548749999999997 Q 8.2131826171875 1.9548749999999997 8.208682617187502 1.9499999999999997 Q 8.204182617187502 1.9451249999999998 8.204182617187502 1.9376249999999997 L 8.204182617187502 1.4478749999999998 Q 8.204182617187502 1.4396249999999997 8.208682617187502 1.4347499999999997 Q 8.2131826171875 1.4298749999999996 8.221432617187501 1.4298749999999996 L 8.255932617187502 1.4298749999999996 Q 8.264932617187501 1.4298749999999996 8.269432617187501 1.4339999999999997 Q 8.273932617187501 1.4381249999999997 8.274682617187501 1.4403749999999997 L 8.523682617187502 1.8228749999999998 L 8.523682617187502 1.4478749999999998 Q 8.523682617187502 1.4396249999999997 8.528182617187502 1.4347499999999997 Q 8.532682617187502 1.4298749999999996 8.5409326171875 1.4298749999999996 L 8.576932617187502 1.4298749999999996 Q 8.585182617187503 1.4298749999999996 8.590057617187501 1.4347499999999997 Q 8.594932617187501 1.4396249999999997 8.594932617187501 1.4478749999999998 L 8.594932617187501 1.9368749999999997 Q 8.594932617187501 1.9443749999999997 8.590057617187501 1.9496249999999997 Q 8.585182617187503 1.9548749999999997 8.577682617187502 1.9548749999999997 L 8.5416826171875 1.9548749999999997 Q 8.533432617187502 1.9548749999999997 8.529307617187502 1.9503749999999997 Q 8.525182617187502 1.9458749999999998 8.523682617187502 1.9443749999999997 L 8.275432617187501 1.5656249999999998 L 8.275432617187501 1.9376249999999997 Q 8.275432617187501 1.9451249999999998 8.270557617187501 1.9499999999999997 Q 8.265682617187501 1.9548749999999997 8.2574326171875 1.9548749999999997 L 8.221432617187501 1.9548749999999997 M 8.882563110351564 1.9623749999999998 Q 8.844313110351564 1.9623749999999998 8.810188110351564 1.9526249999999996 Q 8.776063110351565 1.9428749999999997 8.749438110351564 1.9233749999999996 Q 8.722813110351565 1.9038749999999998 8.707063110351564 1.8738749999999997 Q 8.691313110351564 1.8438749999999997 8.689813110351563 1.8033749999999997 Q 8.689813110351563 1.7966249999999997 8.694313110351564 1.7917499999999997 Q 8.698813110351564 1.7868749999999998 8.706313110351564 1.7868749999999998 L 8.746813110351564 1.7868749999999998 Q 8.755063110351564 1.7868749999999998 8.759938110351564 1.7917499999999997 Q 8.764813110351565 1.7966249999999997 8.766313110351565 1.8041249999999998 Q 8.769313110351565 1.8378749999999997 8.785813110351564 1.8584999999999996 Q 8.802313110351564 1.8791249999999997 8.827813110351563 1.8888749999999996 Q 8.853313110351564 1.8986249999999998 8.884063110351564 1.8986249999999998 Q 8.941063110351564 1.8986249999999998 8.971063110351563 1.8611249999999997 Q 9.001063110351565 1.8236249999999996 9.001063110351565 1.7613749999999997 L 9.001063110351565 1.4951249999999998 L 8.734813110351563 1.4951249999999998 Q 8.727313110351565 1.4951249999999998 8.722438110351565 1.4902499999999996 Q 8.717563110351565 1.4853749999999997 8.717563110351565 1.4778749999999996 L 8.717563110351565 1.4471249999999998 Q 8.717563110351565 1.4396249999999997 8.722438110351565 1.4347499999999997 Q 8.727313110351565 1.4298749999999996 8.734813110351563 1.4298749999999996 L 9.058063110351565 1.4298749999999996 Q 9.066313110351564 1.4298749999999996 9.071188110351564 1.4347499999999997 Q 9.076063110351564 1.4396249999999997 9.076063110351564 1.4478749999999998 L 9.076063110351564 1.7628749999999997 Q 9.076063110351564 1.8236249999999996 9.052813110351565 1.8686249999999998 Q 9.029563110351564 1.9136249999999997 8.986813110351564 1.9379999999999997 Q 8.944063110351564 1.9623749999999998 8.882563110351564 1.9623749999999998 M 9.392167236328127 1.9623749999999998 Q 9.327667236328127 1.9623749999999998 9.281917236328127 1.9402499999999996 Q 9.236167236328127 1.9181249999999996 9.211417236328126 1.8719999999999997 Q 9.186667236328127 1.8258749999999997 9.183667236328127 1.7561249999999997 Q 9.182917236328127 1.7231249999999996 9.182917236328127 1.6927499999999998 Q 9.182917236328127 1.6623749999999997 9.183667236328127 1.6293749999999996 Q 9.186667236328127 1.5603749999999996 9.212542236328126 1.5142499999999997 Q 9.238417236328127 1.4681249999999997 9.284542236328127 1.4452499999999997 Q 9.330667236328127 1.4223749999999997 9.392167236328127 1.4223749999999997 Q 9.452917236328126 1.4223749999999997 9.499042236328126 1.4452499999999997 Q 9.545167236328126 1.4681249999999997 9.571417236328127 1.5142499999999997 Q 9.597667236328126 1.5603749999999996 9.599917236328126 1.6293749999999996 Q 9.601417236328126 1.6623749999999997 9.601417236328126 1.6927499999999998 Q 9.601417236328126 1.7231249999999996 9.599917236328126 1.7561249999999997 Q 9.597667236328126 1.8258749999999997 9.572542236328127 1.8719999999999997 Q 9.547417236328126 1.9181249999999996 9.501667236328126 1.9402499999999996 Q 9.455917236328126 1.9623749999999998 9.392167236328127 1.9623749999999998 M 9.392167236328127 1.8986249999999998 Q 9.449167236328126 1.8986249999999998 9.485542236328127 1.8641249999999996 Q 9.521917236328127 1.8296249999999996 9.524917236328127 1.7523749999999998 Q 9.526417236328127 1.7186249999999996 9.526417236328127 1.6919999999999997 Q 9.526417236328127 1.6653749999999996 9.524917236328127 1.6323749999999997 Q 9.523417236328127 1.5806249999999997 9.505792236328126 1.5483749999999996 Q 9.488167236328128 1.5161249999999997 9.458917236328126 1.5011249999999996 Q 9.429667236328127 1.4861249999999997 9.392167236328127 1.4861249999999997 Q 9.354667236328126 1.4861249999999997 9.325417236328127 1.5011249999999996 Q 9.296167236328127 1.5161249999999997 9.278542236328127 1.5483749999999996 Q 9.260917236328126 1.5806249999999997 9.258667236328126 1.6323749999999997 Q 9.257917236328126 1.6653749999999996 9.257917236328126 1.6919999999999997 Q 9.257917236328126 1.7186249999999996 9.258667236328126 1.7523749999999998 Q 9.261667236328126 1.8296249999999996 9.298417236328127 1.8641249999999996 Q 9.335167236328127 1.8986249999999998 9.392167236328127 1.8986249999999998 M 9.847021728515626 1.9548749999999997 Q 9.839521728515626 1.9548749999999997 9.834646728515628 1.9499999999999997 Q 9.829771728515627 1.9451249999999998 9.829771728515627 1.9376249999999997 L 9.829771728515627 1.7606249999999997 L 9.649021728515626 1.4546249999999996 Q 9.648271728515626 1.4523749999999995 9.647521728515628 1.4501249999999997 Q 9.646771728515628 1.4478749999999998 9.646771728515628 1.4448749999999997 Q 9.646771728515628 1.4388749999999997 9.651271728515626 1.4343749999999997 Q 9.655771728515626 1.4298749999999996 9.661771728515626 1.4298749999999996 L 9.700771728515626 1.4298749999999996 Q 9.707521728515626 1.4298749999999996 9.712771728515627 1.4332499999999997 Q 9.718021728515627 1.4366249999999998 9.720271728515627 1.4426249999999996 L 9.866521728515627 1.6856249999999997 L 10.012771728515627 1.4426249999999996 Q 10.016521728515627 1.4366249999999998 10.021396728515628 1.4332499999999997 Q 10.026271728515626 1.4298749999999996 10.033021728515626 1.4298749999999996 L 10.071271728515626 1.4298749999999996 Q 10.078021728515626 1.4298749999999996 10.082521728515626 1.4343749999999997 Q 10.087021728515627 1.4388749999999997 10.087021728515627 1.4448749999999997 Q 10.087021728515627 1.4478749999999998 10.086271728515626 1.4501249999999997 Q 10.085521728515626 1.4523749999999995 10.084021728515626 1.4546249999999996 L 9.904021728515627 1.7606249999999997 L 9.904021728515627 1.9376249999999997 Q 9.904021728515627 1.9451249999999998 9.899146728515626 1.9499999999999997 Q 9.894271728515626 1.9548749999999997 9.886021728515626 1.9548749999999997 L 9.847021728515626 1.9548749999999997 M 10.117380981445315 1.9548749999999997 Q 10.109880981445315 1.9548749999999997 10.105005981445315 1.9499999999999997 Q 10.100130981445314 1.9451249999999998 10.100130981445314 1.9376249999999997 L 10.100130981445314 1.8836249999999997 Q 10.100130981445314 1.8761249999999996 10.105005981445315 1.8712499999999996 Q 10.109880981445315 1.8663749999999997 10.117380981445315 1.8663749999999997 L 10.171380981445314 1.8663749999999997 Q 10.178880981445314 1.8663749999999997 10.184130981445314 1.8712499999999996 Q 10.189380981445314 1.8761249999999996 10.189380981445314 1.8836249999999997 L 10.189380981445314 1.9376249999999997 Q 10.189380981445314 1.9451249999999998 10.184130981445314 1.9499999999999997 Q 10.178880981445314 1.9548749999999997 10.171380981445314 1.9548749999999997 L 10.117380981445315 1.9548749999999997" fill="#404040" fill-rule="nonzero"></path></g></g><defs><clipPath id="SvgjsClipPath1002"><path d=" M 10.6388916015625 -1.072852697066625 h 4.101481620593499 v 4.1005803941332495 h -4.101481620593499 Z"></path></clipPath><clipPath id="SvgjsClipPath1000e0590f9f-3f67-4eda-81f9-c7239492759e"><path d=" M 10.6388916015625 -1.072852697066625 L 14.740373222155998 -1.072852697066625 L 14.740373222155998 3.0277276970666245 L 10.6388916015625 3.0277276970666245 Z"></path></clipPath></defs></svg>